<svg xmlns="http://www.w3.org/2000/svg" width="243" height="115" viewBox="0 0 243 115" fill="none"><path d="M111.843 54.5968V21.357L122.027 13.8377L110.662 5.5642L85.9433 23.4053V50.0912H97.6848V54.5968H81.439V21.1003L110.673 -0.000164032L125.826 11.033L137.812 2.18383L161.391 21.4246V54.5968H156.887V23.5637L137.674 7.88584L129.646 13.8129L139.995 21.3475V54.5968H130.168H121.859H111.843ZM135.491 23.6409L125.846 16.6177L116.348 23.6314V50.0912H121.859H135.491V23.6409Z" fill="#1E1E1E"></path><path d="M118.598 34.8859L133.237 24.185V48.4028H118.598V34.8859ZM129.296 30.9435L122.539 36.0123L120.85 40.5179H124.792L122.539 47.8396L130.985 37.7019H127.044L129.296 30.9435Z" fill="#6FD1FF"></path><path d="M16.865 88.339C16.865 89.515 16.571 90.5984 15.9832 91.5893C15.3954 92.5801 14.5246 93.375 13.3707 93.9739C12.2168 94.5727 10.8126 94.8722 9.15802 94.8722C7.52519 94.8722 6.06654 94.5945 4.78205 94.0392C3.49755 93.4839 2.46888 92.6836 1.69601 91.6383C0.92313 90.5929 0.482272 89.3734 0.373417 87.9797H5.27189C5.38075 88.9161 5.7563 89.6946 6.39854 90.3153C7.04079 90.9359 7.89529 91.2463 8.96208 91.2463C9.92001 91.2463 10.6548 90.9904 11.1664 90.4786C11.678 89.9668 11.9338 89.3081 11.9338 88.5023C11.9338 87.7837 11.727 87.1903 11.3133 86.722C10.8997 86.2538 10.3772 85.8782 9.74583 85.5951C9.11447 85.312 8.24364 84.9853 7.13331 84.6151C5.69642 84.136 4.5208 83.6623 3.60641 83.1941C2.69203 82.7259 1.91372 82.0454 1.27147 81.1525C0.629224 80.2596 0.308105 79.0946 0.308105 77.6573C0.308105 75.6755 1.0211 74.113 2.4471 72.9697C3.87311 71.8264 5.76173 71.2548 8.11301 71.2548C10.5514 71.2548 12.4944 71.8427 13.9422 73.0187C15.39 74.1947 16.2118 75.7626 16.4078 77.7226H11.444C11.3133 76.8951 10.965 76.2145 10.399 75.681C9.83292 75.1474 9.06005 74.8807 8.08035 74.8807C7.23128 74.8807 6.5455 75.1039 6.02299 75.5503C5.50048 75.9967 5.23924 76.6446 5.23924 77.4939C5.23924 78.169 5.44061 78.7298 5.84338 79.1762C6.24615 79.6227 6.75776 79.9874 7.37823 80.2705C7.99871 80.5536 8.84234 80.8694 9.90912 81.2178C11.3896 81.7405 12.5924 82.2305 13.5177 82.6878C14.4429 83.1451 15.2321 83.8311 15.8853 84.7458C16.5384 85.6604 16.865 86.8581 16.865 88.339ZM28.6213 76.318C30.3848 76.318 31.9686 76.6882 33.3728 77.4286C34.7771 78.169 35.8819 79.2415 36.6875 80.6462C37.493 82.0508 37.8957 83.7004 37.8957 85.5951C37.8957 87.4897 37.493 89.1339 36.6875 90.5276C35.8819 91.9214 34.7771 92.9939 33.3728 93.7452C31.9686 94.4965 30.3848 94.8722 28.6213 94.8722C26.8578 94.8722 25.274 94.4965 23.8698 93.7452C22.4655 92.9939 21.3607 91.9214 20.5551 90.5276C19.7496 89.1339 19.3468 87.4897 19.3468 85.5951C19.3468 83.7004 19.7496 82.0508 20.5551 80.6462C21.3607 79.2415 22.4655 78.169 23.8698 77.4286C25.274 76.6882 26.8578 76.318 28.6213 76.318ZM28.6213 80.3032C27.3368 80.3032 26.2483 80.7551 25.3556 81.6588C24.463 82.5626 24.0167 83.8747 24.0167 85.5951C24.0167 87.3155 24.463 88.6275 25.3556 89.5313C26.2483 90.4351 27.3368 90.8869 28.6213 90.8869C29.9058 90.8869 30.9943 90.4351 31.8869 89.5313C32.7796 88.6275 33.2259 87.3155 33.2259 85.5951C33.2259 83.8747 32.7796 82.5626 31.8869 81.6588C30.9943 80.7551 29.9058 80.3032 28.6213 80.3032ZM45.766 70.4708V94.6435H41.1614V70.4708H45.766ZM57.0325 76.318C58.5564 76.318 59.8627 76.6773 60.9512 77.3959C62.0398 78.1146 62.8127 79.0837 63.2699 80.3032V76.5466H67.8418V94.6435H63.2699V90.8543C62.8127 92.0738 62.0398 93.0483 60.9512 93.7779C59.8627 94.5074 58.5564 94.8722 57.0325 94.8722C55.5085 94.8722 54.1369 94.502 52.9177 93.7615C51.6986 93.0211 50.7461 91.9486 50.0603 90.5439C49.3745 89.1393 49.0316 87.4897 49.0316 85.5951C49.0316 83.7004 49.3745 82.0508 50.0603 80.6462C50.7461 79.2415 51.6986 78.169 52.9177 77.4286C54.1369 76.6882 55.5085 76.318 57.0325 76.318ZM58.4694 80.3359C57.0325 80.3359 55.8786 80.8041 55.0078 81.7405C54.1369 82.6769 53.7015 83.9618 53.7015 85.5951C53.7015 87.2284 54.1369 88.5078 55.0078 89.4333C55.8786 90.3588 57.0325 90.8216 58.4694 90.8216C59.8627 90.8216 61.0111 90.348 61.9146 89.4006C62.8181 88.4533 63.2699 87.1848 63.2699 85.5951C63.2699 83.9835 62.8181 82.7041 61.9146 81.7568C61.0111 80.8095 59.8627 80.3359 58.4694 80.3359ZM76.6264 80.0092C77.3013 78.855 78.1939 77.9458 79.3042 77.2816C80.4145 76.6174 81.6555 76.2853 83.027 76.2853V81.2178H81.6881C78.3136 81.2178 76.6264 82.7858 76.6264 85.9217V94.6435H72.0218V76.5466H76.6264V80.0092ZM108.336 94.6435L104.809 90.5276C104.635 90.9632 104.482 91.3007 104.352 91.5403C103.96 92.542 103.274 93.3478 102.294 93.9575C101.315 94.5673 100.172 94.8722 98.8655 94.8722C97.4068 94.8722 96.1278 94.5673 95.0283 93.9575C93.9289 93.3478 93.0853 92.5148 92.4974 91.4586C91.9096 90.4024 91.6157 89.1992 91.6157 87.849C91.6157 86.5206 91.8715 85.3555 92.3831 84.3538C92.8948 83.352 93.5914 82.5735 94.4731 82.0182C95.3549 81.4628 96.34 81.1634 97.4286 81.1198L97.0367 80.5319C96.6013 79.9221 96.2638 79.3178 96.0243 78.7189C95.7848 78.12 95.6651 77.4504 95.6651 76.71C95.6651 75.7735 95.91 74.897 96.3999 74.0803C96.8897 73.2637 97.6191 72.6049 98.5879 72.1041C99.5567 71.6032 100.716 71.3528 102.066 71.3528C104.003 71.3528 105.5 71.7883 106.556 72.6594C107.612 73.5305 108.292 74.652 108.597 76.024C108.815 76.6773 108.924 77.3742 108.924 78.1146L108.891 78.7352H104.613C104.613 78.1908 104.591 77.8206 104.548 77.6246C104.526 76.8406 104.308 76.2363 103.895 75.8116C103.481 75.387 102.904 75.1747 102.164 75.1747C101.489 75.1747 100.955 75.3706 100.564 75.7626C100.172 76.1546 99.9758 76.6337 99.9758 77.1999C99.9758 77.7008 100.074 78.1364 100.27 78.5066C100.466 78.8768 100.792 79.3341 101.249 79.8785L112.973 94.6435H108.336ZM98.8981 91.0176C99.8343 91.0176 100.602 90.7291 101.2 90.152C101.799 89.5749 102.098 88.829 102.098 87.9143C102.098 86.9561 101.756 86.1613 101.07 85.5297C100.384 84.8982 99.573 84.5824 98.6369 84.5824C97.7442 84.5824 97.0095 84.8546 96.4325 85.3991C95.8556 85.9435 95.5671 86.7166 95.5671 87.7183C95.5671 88.7201 95.8883 89.5204 96.5305 90.1193C97.1728 90.7182 97.9619 91.0176 98.8981 91.0176ZM135.179 82.7531C136.573 83.0362 137.689 83.695 138.527 84.7294C139.365 85.7638 139.784 86.9779 139.784 88.3717C139.784 90.3098 139.136 91.8397 137.841 92.9612C136.546 94.0828 134.668 94.6435 132.208 94.6435H122.313V71.5814H132.012C134.341 71.5814 136.132 72.0932 137.384 73.1167C138.636 74.1402 139.262 75.5775 139.262 77.4286C139.262 78.8659 138.886 80.0419 138.135 80.9565C137.384 81.8712 136.399 82.47 135.179 82.7531ZM126.917 81.2505H131.065C132.219 81.2505 133.095 80.9946 133.694 80.4829C134.292 79.9711 134.592 79.2361 134.592 78.2779C134.592 77.3197 134.298 76.5793 133.71 76.0566C133.122 75.534 132.219 75.2727 130.999 75.2727H126.917V81.2505ZM131.293 90.8869C132.513 90.8869 133.449 90.6202 134.102 90.0866C134.755 89.5531 135.082 88.7746 135.082 87.751C135.082 86.7275 134.75 85.9381 134.085 85.3827C133.421 84.8274 132.48 84.5498 131.261 84.5498H126.917V90.8869H131.293ZM150.104 76.318C151.627 76.318 152.934 76.6773 154.022 77.3959C155.111 78.1146 155.884 79.0837 156.341 80.3032V76.5466H160.913V94.6435H156.341V90.8543C155.884 92.0738 155.111 93.0483 154.022 93.7779C152.934 94.5074 151.627 94.8722 150.104 94.8722C148.58 94.8722 147.208 94.502 145.989 93.7615C144.77 93.0211 143.817 91.9486 143.131 90.5439C142.446 89.1393 142.103 87.4897 142.103 85.5951C142.103 83.7004 142.446 82.0508 143.131 80.6462C143.817 79.2415 144.77 78.169 145.989 77.4286C147.208 76.6882 148.58 76.318 150.104 76.318ZM151.54 80.3359C150.103 80.3359 148.95 80.8041 148.079 81.7405C147.208 82.6769 146.773 83.9618 146.773 85.5951C146.773 87.2284 147.208 88.5078 148.079 89.4333C148.95 90.3588 150.103 90.8216 151.54 90.8216C152.934 90.8216 154.082 90.348 154.986 89.4006C155.889 88.4533 156.341 87.1848 156.341 85.5951C156.341 83.9835 155.889 82.7041 154.986 81.7568C154.082 80.8095 152.934 80.3359 151.54 80.3359ZM174.759 90.6909V94.6435H172.343C170.318 94.6435 168.767 94.1535 167.689 93.1735C166.611 92.1936 166.073 90.5603 166.073 88.2737V80.4339H163.558V76.5466H166.073V72.0714H170.677V76.5466H174.727V80.4339H170.677V88.339C170.677 89.2101 170.851 89.8198 171.2 90.1683C171.548 90.5167 172.136 90.6909 172.963 90.6909H174.759ZM187.724 90.6909V94.6435H185.307C183.283 94.6435 181.731 94.1535 180.654 93.1735C179.576 92.1936 179.037 90.5603 179.037 88.2737V80.4339H176.523V76.5466H179.037V72.0714H183.642V76.5466H187.691V80.4339H183.642V88.339C183.642 89.2101 183.816 89.8198 184.164 90.1683C184.513 90.5167 185.1 90.6909 185.928 90.6909H187.724ZM208.036 84.9091C208.036 85.3664 207.982 85.8891 207.873 86.477H194.614C194.68 88.0886 195.115 89.2754 195.921 90.0376C196.726 90.7998 197.728 91.1809 198.925 91.1809C199.992 91.1809 200.879 90.9196 201.586 90.3969C202.294 89.8743 202.746 89.1665 202.942 88.2737H207.808C207.568 89.5368 207.056 90.6692 206.273 91.6709C205.489 92.6727 204.482 93.4566 203.252 94.0229C202.022 94.5891 200.656 94.8722 199.154 94.8722C197.39 94.8722 195.823 94.4965 194.451 93.7452C193.079 92.9939 192.013 91.9214 191.251 90.5276C190.489 89.1339 190.108 87.4897 190.108 85.5951C190.108 83.7004 190.489 82.0508 191.251 80.6462C192.013 79.2415 193.079 78.169 194.451 77.4286C195.823 76.6882 197.39 76.318 199.154 76.318C200.939 76.318 202.501 76.6882 203.84 77.4286C205.179 78.169 206.213 79.1871 206.942 80.4829C207.672 81.7786 208.036 83.254 208.036 84.9091ZM203.399 84.4518C203.464 82.9709 203.078 81.8494 202.24 81.0872C201.401 80.325 200.373 79.9439 199.154 79.9439C197.913 79.9439 196.868 80.325 196.019 81.0872C195.169 81.8494 194.701 82.9709 194.614 84.4518H203.399ZM215.906 80.0092C216.581 78.855 217.474 77.9458 218.584 77.2816C219.695 76.6174 220.935 76.2853 222.307 76.2853V81.2178H220.968C217.594 81.2178 215.906 82.7858 215.906 85.9217V94.6435H211.302V76.5466H215.906V80.0092ZM227.957 76.5466L232.888 88.829L237.46 76.5466H242.521L231.451 103.267H226.356L230.439 94.1209L222.83 76.5466H227.957Z" fill="#1E1E1E"></path><path d="M97.4123 115C95.6571 115 94.2593 114.527 93.2188 113.581L93.7075 112.587C94.2645 113.06 94.8321 113.397 95.4101 113.596C95.9882 113.796 96.6608 113.896 97.4281 113.896C98.3319 113.896 99.0282 113.72 99.517 113.368C100.006 113.016 100.25 112.519 100.25 111.878C100.25 111.499 100.132 111.192 99.8953 110.955C99.6588 110.718 99.3488 110.532 98.9652 110.395C98.5816 110.259 98.0692 110.117 97.4281 109.969C96.5662 109.78 95.8568 109.575 95.2998 109.354C94.7427 109.134 94.2908 108.816 93.944 108.4C93.5971 107.985 93.4237 107.441 93.4237 106.768C93.4237 106.127 93.5919 105.562 93.9282 105.073C94.2645 104.584 94.7401 104.203 95.3549 103.93C95.9698 103.656 96.6871 103.52 97.5069 103.52C98.2846 103.52 99.0098 103.641 99.6825 103.882C100.355 104.124 100.923 104.476 101.385 104.939L100.881 105.932C100.355 105.48 99.8218 105.149 99.2805 104.939C98.7392 104.729 98.148 104.624 97.5069 104.624C96.6345 104.624 95.9514 104.81 95.4574 105.183C94.9634 105.557 94.7164 106.069 94.7164 106.721C94.7164 107.289 94.9319 107.714 95.3628 107.998C95.7937 108.282 96.4559 108.529 97.3492 108.739C98.3162 108.971 99.0755 109.184 99.6273 109.378C100.179 109.573 100.639 109.867 101.007 110.261C101.375 110.655 101.559 111.178 101.559 111.83C101.559 112.461 101.39 113.016 101.054 113.494C100.718 113.972 100.237 114.343 99.6115 114.606C98.9862 114.869 98.2531 115 97.4123 115ZM106.84 114.984C106.073 114.984 105.403 114.816 104.83 114.48C104.257 114.143 103.816 113.667 103.506 113.052C103.196 112.437 103.04 111.72 103.04 110.9C103.04 110.08 103.198 109.357 103.513 108.732C103.829 108.106 104.278 107.62 104.861 107.273C105.445 106.926 106.125 106.752 106.903 106.752C107.439 106.752 107.957 106.844 108.456 107.028C108.955 107.212 109.368 107.467 109.693 107.793L109.268 108.739C108.868 108.424 108.482 108.193 108.109 108.046C107.736 107.898 107.355 107.825 106.966 107.825C106.157 107.825 105.521 108.095 105.058 108.637C104.596 109.178 104.365 109.933 104.365 110.9C104.365 111.857 104.593 112.6 105.051 113.131C105.508 113.662 106.146 113.928 106.966 113.928C107.355 113.928 107.736 113.854 108.109 113.707C108.482 113.56 108.868 113.328 109.268 113.013L109.693 113.959C109.357 114.275 108.934 114.524 108.424 114.708C107.915 114.892 107.386 114.984 106.84 114.984ZM115.274 106.752C117.177 106.752 118.128 107.798 118.128 109.891V114.874H116.851V109.954C116.851 109.218 116.704 108.679 116.409 108.337C116.115 107.996 115.653 107.825 115.022 107.825C114.286 107.825 113.698 108.051 113.256 108.503C112.815 108.955 112.594 109.565 112.594 110.332V114.874H111.317V103.267H112.594V108.235C112.846 107.751 113.206 107.383 113.674 107.131C114.142 106.879 114.675 106.752 115.274 106.752ZM127.177 110.868H121.36C121.37 111.878 121.604 112.64 122.061 113.155C122.518 113.67 123.183 113.928 124.056 113.928C124.98 113.928 125.832 113.618 126.609 112.997L127.035 113.928C126.688 114.254 126.244 114.511 125.703 114.7C125.162 114.89 124.607 114.984 124.04 114.984C122.8 114.984 121.827 114.619 121.123 113.888C120.419 113.158 120.067 112.156 120.067 110.884C120.067 110.075 120.225 109.357 120.54 108.732C120.855 108.106 121.297 107.62 121.864 107.273C122.432 106.926 123.078 106.752 123.803 106.752C124.854 106.752 125.679 107.097 126.278 107.785C126.877 108.474 127.177 109.423 127.177 110.632V110.868ZM123.819 107.746C123.157 107.746 122.618 107.946 122.203 108.345C121.788 108.745 121.523 109.307 121.407 110.033H126.026C125.963 109.286 125.745 108.718 125.372 108.329C124.999 107.94 124.481 107.746 123.819 107.746ZM137.913 106.752C139.668 106.752 140.546 107.798 140.546 109.891V114.874H139.269V109.954C139.269 109.207 139.14 108.666 138.883 108.329C138.625 107.993 138.207 107.825 137.629 107.825C136.957 107.825 136.431 108.051 136.053 108.503C135.674 108.955 135.485 109.57 135.485 110.348V114.874H134.208V109.954C134.208 109.218 134.077 108.679 133.814 108.337C133.551 107.996 133.131 107.825 132.553 107.825C131.88 107.825 131.352 108.051 130.969 108.503C130.585 108.955 130.393 109.57 130.393 110.348V114.874H129.116V109.165C129.116 108.345 129.074 107.604 128.99 106.942H130.204L130.33 108.329C130.551 107.825 130.879 107.436 131.315 107.162C131.752 106.889 132.259 106.752 132.837 106.752C133.467 106.752 133.982 106.879 134.382 107.131C134.781 107.383 135.075 107.772 135.265 108.298C135.506 107.825 135.861 107.449 136.329 107.17C136.796 106.892 137.325 106.752 137.913 106.752ZM149.611 110.868H143.794C143.804 111.878 144.038 112.64 144.495 113.155C144.952 113.67 145.617 113.928 146.489 113.928C147.414 113.928 148.266 113.618 149.043 112.997L149.469 113.928C149.122 114.254 148.678 114.511 148.137 114.7C147.596 114.89 147.041 114.984 146.474 114.984C145.233 114.984 144.261 114.619 143.557 113.888C142.853 113.158 142.501 112.156 142.501 110.884C142.501 110.075 142.658 109.357 142.974 108.732C143.289 108.106 143.73 107.62 144.298 107.273C144.866 106.926 145.512 106.752 146.237 106.752C147.288 106.752 148.113 107.097 148.712 107.785C149.311 108.474 149.611 109.423 149.611 110.632V110.868ZM146.253 107.746C145.591 107.746 145.052 107.946 144.637 108.345C144.222 108.745 143.956 109.307 143.841 110.033H148.46C148.397 109.286 148.179 108.718 147.806 108.329C147.433 107.94 146.915 107.746 146.253 107.746Z" fill="#1E1E1E"></path></svg>